<mxfile host="app.diagrams.net" modified="2021-09-16T02:15:18.026Z" agent="5.0 (X11)" etag="fT7AcckyVq50S1CCoyhX" version="15.2.7" type="github">
  <diagram id="C5RBs43oDa-KdzZeNtuy" name="Page-1">
    <mxGraphModel dx="2143" dy="746" grid="1" gridSize="10" guides="1" tooltips="1" connect="1" arrows="1" fold="1" page="1" pageScale="1" pageWidth="827" pageHeight="1169" math="0" shadow="0">
      <root>
        <mxCell id="WIyWlLk6GJQsqaUBKTNV-0" />
        <mxCell id="WIyWlLk6GJQsqaUBKTNV-1" parent="WIyWlLk6GJQsqaUBKTNV-0" />
        <mxCell id="ESda6m1xkykQsSSz6do7-42" value="&lt;div style=&quot;box-sizing: border-box ; width: 100% ; background: #e4e4e4 ; padding: 2px&quot;&gt;Administrador&lt;/div&gt;&lt;table style=&quot;width: 100% ; font-size: 1em&quot; cellspacing=&quot;0&quot; cellpadding=&quot;2&quot;&gt;&lt;tbody&gt;&lt;tr&gt;&lt;td&gt;PK&lt;/td&gt;&lt;td&gt;id_admini&lt;/td&gt;&lt;/tr&gt;&lt;tr&gt;&lt;td&gt;&lt;br&gt;&lt;/td&gt;&lt;td&gt;nombre&lt;/td&gt;&lt;/tr&gt;&lt;tr&gt;&lt;td&gt;&lt;br&gt;&lt;/td&gt;&lt;td&gt;email&lt;br&gt;password&lt;br&gt;&lt;/td&gt;&lt;/tr&gt;&lt;/tbody&gt;&lt;/table&gt;" style="verticalAlign=top;align=left;overflow=fill;html=1;" vertex="1" parent="WIyWlLk6GJQsqaUBKTNV-1">
          <mxGeometry x="560" y="910" width="180" height="90" as="geometry" />
        </mxCell>
        <mxCell id="ESda6m1xkykQsSSz6do7-54" value="" style="edgeStyle=entityRelationEdgeStyle;fontSize=12;html=1;endArrow=ERmandOne;startArrow=ERmandOne;entryX=0;entryY=0.5;entryDx=0;entryDy=0;" edge="1" parent="WIyWlLk6GJQsqaUBKTNV-1" source="ESda6m1xkykQsSSz6do7-59" target="ESda6m1xkykQsSSz6do7-76">
          <mxGeometry width="100" height="100" relative="1" as="geometry">
            <mxPoint x="650" y="405" as="sourcePoint" />
            <mxPoint x="750" y="305" as="targetPoint" />
          </mxGeometry>
        </mxCell>
        <mxCell id="ESda6m1xkykQsSSz6do7-55" value="Direccion" style="shape=table;startSize=30;container=1;collapsible=1;childLayout=tableLayout;fixedRows=1;rowLines=0;fontStyle=1;align=center;resizeLast=1;" vertex="1" parent="WIyWlLk6GJQsqaUBKTNV-1">
          <mxGeometry x="647" y="460" width="180" height="220" as="geometry" />
        </mxCell>
        <mxCell id="ESda6m1xkykQsSSz6do7-56" value="" style="shape=partialRectangle;collapsible=0;dropTarget=0;pointerEvents=0;fillColor=none;top=0;left=0;bottom=0;right=0;points=[[0,0.5],[1,0.5]];portConstraint=eastwest;" vertex="1" parent="ESda6m1xkykQsSSz6do7-55">
          <mxGeometry y="30" width="180" height="30" as="geometry" />
        </mxCell>
        <mxCell id="ESda6m1xkykQsSSz6do7-57" value="PK" style="shape=partialRectangle;connectable=0;fillColor=none;top=0;left=0;bottom=0;right=0;fontStyle=1;overflow=hidden;" vertex="1" parent="ESda6m1xkykQsSSz6do7-56">
          <mxGeometry width="60" height="30" as="geometry" />
        </mxCell>
        <mxCell id="ESda6m1xkykQsSSz6do7-58" value="id_direccion" style="shape=partialRectangle;connectable=0;fillColor=none;top=0;left=0;bottom=0;right=0;align=left;spacingLeft=6;fontStyle=5;overflow=hidden;" vertex="1" parent="ESda6m1xkykQsSSz6do7-56">
          <mxGeometry x="60" width="120" height="30" as="geometry" />
        </mxCell>
        <mxCell id="ESda6m1xkykQsSSz6do7-59" value="" style="shape=partialRectangle;collapsible=0;dropTarget=0;pointerEvents=0;fillColor=none;top=0;left=0;bottom=1;right=0;points=[[0,0.5],[1,0.5]];portConstraint=eastwest;" vertex="1" parent="ESda6m1xkykQsSSz6do7-55">
          <mxGeometry y="60" width="180" height="30" as="geometry" />
        </mxCell>
        <mxCell id="ESda6m1xkykQsSSz6do7-60" value="FK1" style="shape=partialRectangle;connectable=0;fillColor=none;top=0;left=0;bottom=0;right=0;fontStyle=1;overflow=hidden;" vertex="1" parent="ESda6m1xkykQsSSz6do7-59">
          <mxGeometry width="60" height="30" as="geometry" />
        </mxCell>
        <mxCell id="ESda6m1xkykQsSSz6do7-61" value="id_cliente" style="shape=partialRectangle;connectable=0;fillColor=none;top=0;left=0;bottom=0;right=0;align=left;spacingLeft=6;fontStyle=5;overflow=hidden;" vertex="1" parent="ESda6m1xkykQsSSz6do7-59">
          <mxGeometry x="60" width="120" height="30" as="geometry" />
        </mxCell>
        <mxCell id="ESda6m1xkykQsSSz6do7-62" value="" style="shape=partialRectangle;collapsible=0;dropTarget=0;pointerEvents=0;fillColor=none;top=0;left=0;bottom=0;right=0;points=[[0,0.5],[1,0.5]];portConstraint=eastwest;" vertex="1" parent="ESda6m1xkykQsSSz6do7-55">
          <mxGeometry y="90" width="180" height="30" as="geometry" />
        </mxCell>
        <mxCell id="ESda6m1xkykQsSSz6do7-63" value="varchar" style="shape=partialRectangle;connectable=0;fillColor=none;top=0;left=0;bottom=0;right=0;editable=1;overflow=hidden;" vertex="1" parent="ESda6m1xkykQsSSz6do7-62">
          <mxGeometry width="60" height="30" as="geometry" />
        </mxCell>
        <mxCell id="ESda6m1xkykQsSSz6do7-64" value="ciudad" style="shape=partialRectangle;connectable=0;fillColor=none;top=0;left=0;bottom=0;right=0;align=left;spacingLeft=6;overflow=hidden;" vertex="1" parent="ESda6m1xkykQsSSz6do7-62">
          <mxGeometry x="60" width="120" height="30" as="geometry" />
        </mxCell>
        <mxCell id="ESda6m1xkykQsSSz6do7-65" value="" style="shape=partialRectangle;collapsible=0;dropTarget=0;pointerEvents=0;fillColor=none;top=0;left=0;bottom=0;right=0;points=[[0,0.5],[1,0.5]];portConstraint=eastwest;" vertex="1" parent="ESda6m1xkykQsSSz6do7-55">
          <mxGeometry y="120" width="180" height="30" as="geometry" />
        </mxCell>
        <mxCell id="ESda6m1xkykQsSSz6do7-66" value="varchar" style="shape=partialRectangle;connectable=0;fillColor=none;top=0;left=0;bottom=0;right=0;editable=1;overflow=hidden;" vertex="1" parent="ESda6m1xkykQsSSz6do7-65">
          <mxGeometry width="60" height="30" as="geometry" />
        </mxCell>
        <mxCell id="ESda6m1xkykQsSSz6do7-67" value="calle" style="shape=partialRectangle;connectable=0;fillColor=none;top=0;left=0;bottom=0;right=0;align=left;spacingLeft=6;overflow=hidden;" vertex="1" parent="ESda6m1xkykQsSSz6do7-65">
          <mxGeometry x="60" width="120" height="30" as="geometry" />
        </mxCell>
        <mxCell id="ESda6m1xkykQsSSz6do7-68" value="" style="shape=partialRectangle;collapsible=0;dropTarget=0;pointerEvents=0;fillColor=none;top=0;left=0;bottom=0;right=0;points=[[0,0.5],[1,0.5]];portConstraint=eastwest;" vertex="1" parent="ESda6m1xkykQsSSz6do7-55">
          <mxGeometry y="150" width="180" height="30" as="geometry" />
        </mxCell>
        <mxCell id="ESda6m1xkykQsSSz6do7-69" value="int" style="shape=partialRectangle;connectable=0;fillColor=none;top=0;left=0;bottom=0;right=0;editable=1;overflow=hidden;" vertex="1" parent="ESda6m1xkykQsSSz6do7-68">
          <mxGeometry width="60" height="30" as="geometry" />
        </mxCell>
        <mxCell id="ESda6m1xkykQsSSz6do7-70" value="numero" style="shape=partialRectangle;connectable=0;fillColor=none;top=0;left=0;bottom=0;right=0;align=left;spacingLeft=6;overflow=hidden;" vertex="1" parent="ESda6m1xkykQsSSz6do7-68">
          <mxGeometry x="60" width="120" height="30" as="geometry" />
        </mxCell>
        <mxCell id="ESda6m1xkykQsSSz6do7-72" value="Cliente" style="shape=table;startSize=30;container=1;collapsible=1;childLayout=tableLayout;fixedRows=1;rowLines=0;fontStyle=1;align=center;resizeLast=1;" vertex="1" parent="WIyWlLk6GJQsqaUBKTNV-1">
          <mxGeometry x="890" y="230" width="190" height="180" as="geometry" />
        </mxCell>
        <mxCell id="ESda6m1xkykQsSSz6do7-73" value="" style="shape=partialRectangle;collapsible=0;dropTarget=0;pointerEvents=0;fillColor=none;top=0;left=0;bottom=0;right=0;points=[[0,0.5],[1,0.5]];portConstraint=eastwest;" vertex="1" parent="ESda6m1xkykQsSSz6do7-72">
          <mxGeometry y="30" width="190" height="30" as="geometry" />
        </mxCell>
        <mxCell id="ESda6m1xkykQsSSz6do7-74" value="PK" style="shape=partialRectangle;connectable=0;fillColor=none;top=0;left=0;bottom=0;right=0;fontStyle=1;overflow=hidden;" vertex="1" parent="ESda6m1xkykQsSSz6do7-73">
          <mxGeometry width="60" height="30" as="geometry" />
        </mxCell>
        <mxCell id="ESda6m1xkykQsSSz6do7-75" value="id_cliente" style="shape=partialRectangle;connectable=0;fillColor=none;top=0;left=0;bottom=0;right=0;align=left;spacingLeft=6;fontStyle=5;overflow=hidden;" vertex="1" parent="ESda6m1xkykQsSSz6do7-73">
          <mxGeometry x="60" width="130" height="30" as="geometry" />
        </mxCell>
        <mxCell id="ESda6m1xkykQsSSz6do7-76" value="" style="shape=partialRectangle;collapsible=0;dropTarget=0;pointerEvents=0;fillColor=none;top=0;left=0;bottom=1;right=0;points=[[0,0.5],[1,0.5]];portConstraint=eastwest;" vertex="1" parent="ESda6m1xkykQsSSz6do7-72">
          <mxGeometry y="60" width="190" height="30" as="geometry" />
        </mxCell>
        <mxCell id="ESda6m1xkykQsSSz6do7-77" value="FK" style="shape=partialRectangle;connectable=0;fillColor=none;top=0;left=0;bottom=0;right=0;fontStyle=1;overflow=hidden;" vertex="1" parent="ESda6m1xkykQsSSz6do7-76">
          <mxGeometry width="60" height="30" as="geometry" />
        </mxCell>
        <mxCell id="ESda6m1xkykQsSSz6do7-78" value="id_direccion" style="shape=partialRectangle;connectable=0;fillColor=none;top=0;left=0;bottom=0;right=0;align=left;spacingLeft=6;fontStyle=5;overflow=hidden;" vertex="1" parent="ESda6m1xkykQsSSz6do7-76">
          <mxGeometry x="60" width="130" height="30" as="geometry" />
        </mxCell>
        <mxCell id="ESda6m1xkykQsSSz6do7-79" value="" style="shape=partialRectangle;collapsible=0;dropTarget=0;pointerEvents=0;fillColor=none;top=0;left=0;bottom=0;right=0;points=[[0,0.5],[1,0.5]];portConstraint=eastwest;" vertex="1" parent="ESda6m1xkykQsSSz6do7-72">
          <mxGeometry y="90" width="190" height="30" as="geometry" />
        </mxCell>
        <mxCell id="ESda6m1xkykQsSSz6do7-80" value="" style="shape=partialRectangle;connectable=0;fillColor=none;top=0;left=0;bottom=0;right=0;editable=1;overflow=hidden;" vertex="1" parent="ESda6m1xkykQsSSz6do7-79">
          <mxGeometry width="60" height="30" as="geometry" />
        </mxCell>
        <mxCell id="ESda6m1xkykQsSSz6do7-81" value="nombre" style="shape=partialRectangle;connectable=0;fillColor=none;top=0;left=0;bottom=0;right=0;align=left;spacingLeft=6;overflow=hidden;" vertex="1" parent="ESda6m1xkykQsSSz6do7-79">
          <mxGeometry x="60" width="130" height="30" as="geometry" />
        </mxCell>
        <mxCell id="ESda6m1xkykQsSSz6do7-82" value="" style="shape=partialRectangle;collapsible=0;dropTarget=0;pointerEvents=0;fillColor=none;top=0;left=0;bottom=0;right=0;points=[[0,0.5],[1,0.5]];portConstraint=eastwest;" vertex="1" parent="ESda6m1xkykQsSSz6do7-72">
          <mxGeometry y="120" width="190" height="30" as="geometry" />
        </mxCell>
        <mxCell id="ESda6m1xkykQsSSz6do7-83" value="" style="shape=partialRectangle;connectable=0;fillColor=none;top=0;left=0;bottom=0;right=0;editable=1;overflow=hidden;" vertex="1" parent="ESda6m1xkykQsSSz6do7-82">
          <mxGeometry width="60" height="30" as="geometry" />
        </mxCell>
        <mxCell id="ESda6m1xkykQsSSz6do7-84" value="email" style="shape=partialRectangle;connectable=0;fillColor=none;top=0;left=0;bottom=0;right=0;align=left;spacingLeft=6;overflow=hidden;" vertex="1" parent="ESda6m1xkykQsSSz6do7-82">
          <mxGeometry x="60" width="130" height="30" as="geometry" />
        </mxCell>
        <mxCell id="ESda6m1xkykQsSSz6do7-88" value="" style="shape=partialRectangle;collapsible=0;dropTarget=0;pointerEvents=0;fillColor=none;top=0;left=0;bottom=0;right=0;points=[[0,0.5],[1,0.5]];portConstraint=eastwest;" vertex="1" parent="ESda6m1xkykQsSSz6do7-72">
          <mxGeometry y="150" width="190" height="30" as="geometry" />
        </mxCell>
        <mxCell id="ESda6m1xkykQsSSz6do7-89" value="                " style="shape=partialRectangle;connectable=0;fillColor=none;top=0;left=0;bottom=0;right=0;editable=1;overflow=hidden;" vertex="1" parent="ESda6m1xkykQsSSz6do7-88">
          <mxGeometry width="60" height="30" as="geometry" />
        </mxCell>
        <mxCell id="ESda6m1xkykQsSSz6do7-90" value="numero" style="shape=partialRectangle;connectable=0;fillColor=none;top=0;left=0;bottom=0;right=0;align=left;spacingLeft=6;overflow=hidden;" vertex="1" parent="ESda6m1xkykQsSSz6do7-88">
          <mxGeometry x="60" width="130" height="30" as="geometry" />
        </mxCell>
        <mxCell id="ESda6m1xkykQsSSz6do7-91" value="Pedidos" style="shape=table;startSize=30;container=1;collapsible=1;childLayout=tableLayout;fixedRows=1;rowLines=0;fontStyle=1;align=center;resizeLast=1;" vertex="1" parent="WIyWlLk6GJQsqaUBKTNV-1">
          <mxGeometry x="615" y="200" width="180" height="190" as="geometry" />
        </mxCell>
        <mxCell id="ESda6m1xkykQsSSz6do7-92" value="" style="shape=partialRectangle;collapsible=0;dropTarget=0;pointerEvents=0;fillColor=none;top=0;left=0;bottom=0;right=0;points=[[0,0.5],[1,0.5]];portConstraint=eastwest;" vertex="1" parent="ESda6m1xkykQsSSz6do7-91">
          <mxGeometry y="30" width="180" height="30" as="geometry" />
        </mxCell>
        <mxCell id="ESda6m1xkykQsSSz6do7-93" value="PK" style="shape=partialRectangle;connectable=0;fillColor=none;top=0;left=0;bottom=0;right=0;fontStyle=1;overflow=hidden;" vertex="1" parent="ESda6m1xkykQsSSz6do7-92">
          <mxGeometry width="60" height="30" as="geometry" />
        </mxCell>
        <mxCell id="ESda6m1xkykQsSSz6do7-94" value="id_pedido" style="shape=partialRectangle;connectable=0;fillColor=none;top=0;left=0;bottom=0;right=0;align=left;spacingLeft=6;fontStyle=5;overflow=hidden;" vertex="1" parent="ESda6m1xkykQsSSz6do7-92">
          <mxGeometry x="60" width="120" height="30" as="geometry" />
        </mxCell>
        <mxCell id="ESda6m1xkykQsSSz6do7-95" value="" style="shape=partialRectangle;collapsible=0;dropTarget=0;pointerEvents=0;fillColor=none;top=0;left=0;bottom=1;right=0;points=[[0,0.5],[1,0.5]];portConstraint=eastwest;" vertex="1" parent="ESda6m1xkykQsSSz6do7-91">
          <mxGeometry y="60" width="180" height="30" as="geometry" />
        </mxCell>
        <mxCell id="ESda6m1xkykQsSSz6do7-96" value="" style="shape=partialRectangle;connectable=0;fillColor=none;top=0;left=0;bottom=0;right=0;fontStyle=1;overflow=hidden;" vertex="1" parent="ESda6m1xkykQsSSz6do7-95">
          <mxGeometry width="60" height="30" as="geometry" />
        </mxCell>
        <mxCell id="ESda6m1xkykQsSSz6do7-97" value="id_cliente" style="shape=partialRectangle;connectable=0;fillColor=none;top=0;left=0;bottom=0;right=0;align=left;spacingLeft=6;fontStyle=5;overflow=hidden;" vertex="1" parent="ESda6m1xkykQsSSz6do7-95">
          <mxGeometry x="60" width="120" height="30" as="geometry" />
        </mxCell>
        <mxCell id="ESda6m1xkykQsSSz6do7-98" value="" style="shape=partialRectangle;collapsible=0;dropTarget=0;pointerEvents=0;fillColor=none;top=0;left=0;bottom=0;right=0;points=[[0,0.5],[1,0.5]];portConstraint=eastwest;" vertex="1" parent="ESda6m1xkykQsSSz6do7-91">
          <mxGeometry y="90" width="180" height="30" as="geometry" />
        </mxCell>
        <mxCell id="ESda6m1xkykQsSSz6do7-99" value="" style="shape=partialRectangle;connectable=0;fillColor=none;top=0;left=0;bottom=0;right=0;editable=1;overflow=hidden;" vertex="1" parent="ESda6m1xkykQsSSz6do7-98">
          <mxGeometry width="60" height="30" as="geometry" />
        </mxCell>
        <mxCell id="ESda6m1xkykQsSSz6do7-100" value="hora" style="shape=partialRectangle;connectable=0;fillColor=none;top=0;left=0;bottom=0;right=0;align=left;spacingLeft=6;overflow=hidden;" vertex="1" parent="ESda6m1xkykQsSSz6do7-98">
          <mxGeometry x="60" width="120" height="30" as="geometry" />
        </mxCell>
        <mxCell id="ESda6m1xkykQsSSz6do7-138" value="" style="shape=partialRectangle;collapsible=0;dropTarget=0;pointerEvents=0;fillColor=none;top=0;left=0;bottom=0;right=0;points=[[0,0.5],[1,0.5]];portConstraint=eastwest;" vertex="1" parent="ESda6m1xkykQsSSz6do7-91">
          <mxGeometry y="120" width="180" height="30" as="geometry" />
        </mxCell>
        <mxCell id="ESda6m1xkykQsSSz6do7-139" value="" style="shape=partialRectangle;connectable=0;fillColor=none;top=0;left=0;bottom=0;right=0;editable=1;overflow=hidden;" vertex="1" parent="ESda6m1xkykQsSSz6do7-138">
          <mxGeometry width="60" height="30" as="geometry" />
        </mxCell>
        <mxCell id="ESda6m1xkykQsSSz6do7-140" value="fecha" style="shape=partialRectangle;connectable=0;fillColor=none;top=0;left=0;bottom=0;right=0;align=left;spacingLeft=6;overflow=hidden;" vertex="1" parent="ESda6m1xkykQsSSz6do7-138">
          <mxGeometry x="60" width="120" height="30" as="geometry" />
        </mxCell>
        <mxCell id="ESda6m1xkykQsSSz6do7-101" value="" style="shape=partialRectangle;collapsible=0;dropTarget=0;pointerEvents=0;fillColor=none;top=0;left=0;bottom=0;right=0;points=[[0,0.5],[1,0.5]];portConstraint=eastwest;" vertex="1" parent="ESda6m1xkykQsSSz6do7-91">
          <mxGeometry y="150" width="180" height="30" as="geometry" />
        </mxCell>
        <mxCell id="ESda6m1xkykQsSSz6do7-102" value="" style="shape=partialRectangle;connectable=0;fillColor=none;top=0;left=0;bottom=0;right=0;editable=1;overflow=hidden;" vertex="1" parent="ESda6m1xkykQsSSz6do7-101">
          <mxGeometry width="60" height="30" as="geometry" />
        </mxCell>
        <mxCell id="ESda6m1xkykQsSSz6do7-103" value="estado" style="shape=partialRectangle;connectable=0;fillColor=none;top=0;left=0;bottom=0;right=0;align=left;spacingLeft=6;overflow=hidden;" vertex="1" parent="ESda6m1xkykQsSSz6do7-101">
          <mxGeometry x="60" width="120" height="30" as="geometry" />
        </mxCell>
        <mxCell id="ESda6m1xkykQsSSz6do7-104" value="Platos" style="shape=table;startSize=30;container=1;collapsible=1;childLayout=tableLayout;fixedRows=1;rowLines=0;fontStyle=1;align=center;resizeLast=1;" vertex="1" parent="WIyWlLk6GJQsqaUBKTNV-1">
          <mxGeometry x="70" y="190" width="170" height="270" as="geometry" />
        </mxCell>
        <mxCell id="ESda6m1xkykQsSSz6do7-105" value="" style="shape=partialRectangle;collapsible=0;dropTarget=0;pointerEvents=0;fillColor=none;top=0;left=0;bottom=0;right=0;points=[[0,0.5],[1,0.5]];portConstraint=eastwest;" vertex="1" parent="ESda6m1xkykQsSSz6do7-104">
          <mxGeometry y="30" width="170" height="30" as="geometry" />
        </mxCell>
        <mxCell id="ESda6m1xkykQsSSz6do7-106" value="PK" style="shape=partialRectangle;connectable=0;fillColor=none;top=0;left=0;bottom=0;right=0;fontStyle=1;overflow=hidden;" vertex="1" parent="ESda6m1xkykQsSSz6do7-105">
          <mxGeometry width="60" height="30" as="geometry" />
        </mxCell>
        <mxCell id="ESda6m1xkykQsSSz6do7-107" value="id_plato" style="shape=partialRectangle;connectable=0;fillColor=none;top=0;left=0;bottom=0;right=0;align=left;spacingLeft=6;fontStyle=5;overflow=hidden;" vertex="1" parent="ESda6m1xkykQsSSz6do7-105">
          <mxGeometry x="60" width="110" height="30" as="geometry" />
        </mxCell>
        <mxCell id="ESda6m1xkykQsSSz6do7-108" value="" style="shape=partialRectangle;collapsible=0;dropTarget=0;pointerEvents=0;fillColor=none;top=0;left=0;bottom=1;right=0;points=[[0,0.5],[1,0.5]];portConstraint=eastwest;" vertex="1" parent="ESda6m1xkykQsSSz6do7-104">
          <mxGeometry y="60" width="170" height="30" as="geometry" />
        </mxCell>
        <mxCell id="ESda6m1xkykQsSSz6do7-109" value="FK" style="shape=partialRectangle;connectable=0;fillColor=none;top=0;left=0;bottom=0;right=0;fontStyle=1;overflow=hidden;" vertex="1" parent="ESda6m1xkykQsSSz6do7-108">
          <mxGeometry width="60" height="30" as="geometry" />
        </mxCell>
        <mxCell id="ESda6m1xkykQsSSz6do7-110" value="id_imagen" style="shape=partialRectangle;connectable=0;fillColor=none;top=0;left=0;bottom=0;right=0;align=left;spacingLeft=6;fontStyle=5;overflow=hidden;" vertex="1" parent="ESda6m1xkykQsSSz6do7-108">
          <mxGeometry x="60" width="110" height="30" as="geometry" />
        </mxCell>
        <mxCell id="ESda6m1xkykQsSSz6do7-111" value="" style="shape=partialRectangle;collapsible=0;dropTarget=0;pointerEvents=0;fillColor=none;top=0;left=0;bottom=0;right=0;points=[[0,0.5],[1,0.5]];portConstraint=eastwest;" vertex="1" parent="ESda6m1xkykQsSSz6do7-104">
          <mxGeometry y="90" width="170" height="30" as="geometry" />
        </mxCell>
        <mxCell id="ESda6m1xkykQsSSz6do7-112" value="" style="shape=partialRectangle;connectable=0;fillColor=none;top=0;left=0;bottom=0;right=0;editable=1;overflow=hidden;" vertex="1" parent="ESda6m1xkykQsSSz6do7-111">
          <mxGeometry width="60" height="30" as="geometry" />
        </mxCell>
        <mxCell id="ESda6m1xkykQsSSz6do7-113" value="nombre" style="shape=partialRectangle;connectable=0;fillColor=none;top=0;left=0;bottom=0;right=0;align=left;spacingLeft=6;overflow=hidden;" vertex="1" parent="ESda6m1xkykQsSSz6do7-111">
          <mxGeometry x="60" width="110" height="30" as="geometry" />
        </mxCell>
        <mxCell id="ESda6m1xkykQsSSz6do7-114" value="" style="shape=partialRectangle;collapsible=0;dropTarget=0;pointerEvents=0;fillColor=none;top=0;left=0;bottom=0;right=0;points=[[0,0.5],[1,0.5]];portConstraint=eastwest;" vertex="1" parent="ESda6m1xkykQsSSz6do7-104">
          <mxGeometry y="120" width="170" height="30" as="geometry" />
        </mxCell>
        <mxCell id="ESda6m1xkykQsSSz6do7-115" value="" style="shape=partialRectangle;connectable=0;fillColor=none;top=0;left=0;bottom=0;right=0;editable=1;overflow=hidden;" vertex="1" parent="ESda6m1xkykQsSSz6do7-114">
          <mxGeometry width="60" height="30" as="geometry" />
        </mxCell>
        <mxCell id="ESda6m1xkykQsSSz6do7-116" value="descripcion" style="shape=partialRectangle;connectable=0;fillColor=none;top=0;left=0;bottom=0;right=0;align=left;spacingLeft=6;overflow=hidden;" vertex="1" parent="ESda6m1xkykQsSSz6do7-114">
          <mxGeometry x="60" width="110" height="30" as="geometry" />
        </mxCell>
        <mxCell id="ESda6m1xkykQsSSz6do7-117" value="" style="shape=partialRectangle;collapsible=0;dropTarget=0;pointerEvents=0;fillColor=none;top=0;left=0;bottom=0;right=0;points=[[0,0.5],[1,0.5]];portConstraint=eastwest;" vertex="1" parent="ESda6m1xkykQsSSz6do7-104">
          <mxGeometry y="150" width="170" height="30" as="geometry" />
        </mxCell>
        <mxCell id="ESda6m1xkykQsSSz6do7-118" value="" style="shape=partialRectangle;connectable=0;fillColor=none;top=0;left=0;bottom=0;right=0;editable=1;overflow=hidden;" vertex="1" parent="ESda6m1xkykQsSSz6do7-117">
          <mxGeometry width="60" height="30" as="geometry" />
        </mxCell>
        <mxCell id="ESda6m1xkykQsSSz6do7-119" value="agregado" style="shape=partialRectangle;connectable=0;fillColor=none;top=0;left=0;bottom=0;right=0;align=left;spacingLeft=6;overflow=hidden;" vertex="1" parent="ESda6m1xkykQsSSz6do7-117">
          <mxGeometry x="60" width="110" height="30" as="geometry" />
        </mxCell>
        <mxCell id="ESda6m1xkykQsSSz6do7-135" value="" style="shape=partialRectangle;collapsible=0;dropTarget=0;pointerEvents=0;fillColor=none;top=0;left=0;bottom=0;right=0;points=[[0,0.5],[1,0.5]];portConstraint=eastwest;" vertex="1" parent="ESda6m1xkykQsSSz6do7-104">
          <mxGeometry y="180" width="170" height="30" as="geometry" />
        </mxCell>
        <mxCell id="ESda6m1xkykQsSSz6do7-136" value="" style="shape=partialRectangle;connectable=0;fillColor=none;top=0;left=0;bottom=0;right=0;editable=1;overflow=hidden;" vertex="1" parent="ESda6m1xkykQsSSz6do7-135">
          <mxGeometry width="60" height="30" as="geometry" />
        </mxCell>
        <mxCell id="ESda6m1xkykQsSSz6do7-137" value="precio" style="shape=partialRectangle;connectable=0;fillColor=none;top=0;left=0;bottom=0;right=0;align=left;spacingLeft=6;overflow=hidden;" vertex="1" parent="ESda6m1xkykQsSSz6do7-135">
          <mxGeometry x="60" width="110" height="30" as="geometry" />
        </mxCell>
        <mxCell id="ESda6m1xkykQsSSz6do7-141" value="" style="shape=partialRectangle;collapsible=0;dropTarget=0;pointerEvents=0;fillColor=none;top=0;left=0;bottom=0;right=0;points=[[0,0.5],[1,0.5]];portConstraint=eastwest;" vertex="1" parent="ESda6m1xkykQsSSz6do7-104">
          <mxGeometry y="210" width="170" height="30" as="geometry" />
        </mxCell>
        <mxCell id="ESda6m1xkykQsSSz6do7-142" value="" style="shape=partialRectangle;connectable=0;fillColor=none;top=0;left=0;bottom=0;right=0;editable=1;overflow=hidden;" vertex="1" parent="ESda6m1xkykQsSSz6do7-141">
          <mxGeometry width="60" height="30" as="geometry" />
        </mxCell>
        <mxCell id="ESda6m1xkykQsSSz6do7-143" value="cantidad" style="shape=partialRectangle;connectable=0;fillColor=none;top=0;left=0;bottom=0;right=0;align=left;spacingLeft=6;overflow=hidden;" vertex="1" parent="ESda6m1xkykQsSSz6do7-141">
          <mxGeometry x="60" width="110" height="30" as="geometry" />
        </mxCell>
        <mxCell id="ESda6m1xkykQsSSz6do7-144" value="" style="shape=partialRectangle;collapsible=0;dropTarget=0;pointerEvents=0;fillColor=none;top=0;left=0;bottom=0;right=0;points=[[0,0.5],[1,0.5]];portConstraint=eastwest;" vertex="1" parent="ESda6m1xkykQsSSz6do7-104">
          <mxGeometry y="240" width="170" height="30" as="geometry" />
        </mxCell>
        <mxCell id="ESda6m1xkykQsSSz6do7-145" value="" style="shape=partialRectangle;connectable=0;fillColor=none;top=0;left=0;bottom=0;right=0;editable=1;overflow=hidden;" vertex="1" parent="ESda6m1xkykQsSSz6do7-144">
          <mxGeometry width="60" height="30" as="geometry" />
        </mxCell>
        <mxCell id="ESda6m1xkykQsSSz6do7-146" value="estado" style="shape=partialRectangle;connectable=0;fillColor=none;top=0;left=0;bottom=0;right=0;align=left;spacingLeft=6;overflow=hidden;" vertex="1" parent="ESda6m1xkykQsSSz6do7-144">
          <mxGeometry x="60" width="110" height="30" as="geometry" />
        </mxCell>
        <mxCell id="ESda6m1xkykQsSSz6do7-120" value="Relacion_platos_pedidos" style="shape=table;startSize=30;container=1;collapsible=1;childLayout=tableLayout;fixedRows=1;rowLines=0;fontStyle=1;align=center;resizeLast=1;" vertex="1" parent="WIyWlLk6GJQsqaUBKTNV-1">
          <mxGeometry x="330" y="120" width="180" height="160" as="geometry" />
        </mxCell>
        <mxCell id="ESda6m1xkykQsSSz6do7-121" value="" style="shape=partialRectangle;collapsible=0;dropTarget=0;pointerEvents=0;fillColor=none;top=0;left=0;bottom=0;right=0;points=[[0,0.5],[1,0.5]];portConstraint=eastwest;" vertex="1" parent="ESda6m1xkykQsSSz6do7-120">
          <mxGeometry y="30" width="180" height="30" as="geometry" />
        </mxCell>
        <mxCell id="ESda6m1xkykQsSSz6do7-122" value="PK" style="shape=partialRectangle;connectable=0;fillColor=none;top=0;left=0;bottom=0;right=0;fontStyle=1;overflow=hidden;" vertex="1" parent="ESda6m1xkykQsSSz6do7-121">
          <mxGeometry width="60" height="30" as="geometry" />
        </mxCell>
        <mxCell id="ESda6m1xkykQsSSz6do7-123" value="id_relacion" style="shape=partialRectangle;connectable=0;fillColor=none;top=0;left=0;bottom=0;right=0;align=left;spacingLeft=6;fontStyle=5;overflow=hidden;" vertex="1" parent="ESda6m1xkykQsSSz6do7-121">
          <mxGeometry x="60" width="120" height="30" as="geometry" />
        </mxCell>
        <mxCell id="ESda6m1xkykQsSSz6do7-124" value="" style="shape=partialRectangle;collapsible=0;dropTarget=0;pointerEvents=0;fillColor=none;top=0;left=0;bottom=1;right=0;points=[[0,0.5],[1,0.5]];portConstraint=eastwest;" vertex="1" parent="ESda6m1xkykQsSSz6do7-120">
          <mxGeometry y="60" width="180" height="30" as="geometry" />
        </mxCell>
        <mxCell id="ESda6m1xkykQsSSz6do7-125" value="FK" style="shape=partialRectangle;connectable=0;fillColor=none;top=0;left=0;bottom=0;right=0;fontStyle=1;overflow=hidden;" vertex="1" parent="ESda6m1xkykQsSSz6do7-124">
          <mxGeometry width="60" height="30" as="geometry" />
        </mxCell>
        <mxCell id="ESda6m1xkykQsSSz6do7-126" value="id_plato" style="shape=partialRectangle;connectable=0;fillColor=none;top=0;left=0;bottom=0;right=0;align=left;spacingLeft=6;fontStyle=5;overflow=hidden;" vertex="1" parent="ESda6m1xkykQsSSz6do7-124">
          <mxGeometry x="60" width="120" height="30" as="geometry" />
        </mxCell>
        <mxCell id="ESda6m1xkykQsSSz6do7-127" value="" style="shape=partialRectangle;collapsible=0;dropTarget=0;pointerEvents=0;fillColor=none;top=0;left=0;bottom=0;right=0;points=[[0,0.5],[1,0.5]];portConstraint=eastwest;" vertex="1" parent="ESda6m1xkykQsSSz6do7-120">
          <mxGeometry y="90" width="180" height="30" as="geometry" />
        </mxCell>
        <mxCell id="ESda6m1xkykQsSSz6do7-128" value="" style="shape=partialRectangle;connectable=0;fillColor=none;top=0;left=0;bottom=0;right=0;editable=1;overflow=hidden;" vertex="1" parent="ESda6m1xkykQsSSz6do7-127">
          <mxGeometry width="60" height="30" as="geometry" />
        </mxCell>
        <mxCell id="ESda6m1xkykQsSSz6do7-129" value="id_pedido" style="shape=partialRectangle;connectable=0;fillColor=none;top=0;left=0;bottom=0;right=0;align=left;spacingLeft=6;overflow=hidden;fontStyle=1" vertex="1" parent="ESda6m1xkykQsSSz6do7-127">
          <mxGeometry x="60" width="120" height="30" as="geometry" />
        </mxCell>
        <mxCell id="ESda6m1xkykQsSSz6do7-130" value="" style="shape=partialRectangle;collapsible=0;dropTarget=0;pointerEvents=0;fillColor=none;top=0;left=0;bottom=0;right=0;points=[[0,0.5],[1,0.5]];portConstraint=eastwest;" vertex="1" parent="ESda6m1xkykQsSSz6do7-120">
          <mxGeometry y="120" width="180" height="30" as="geometry" />
        </mxCell>
        <mxCell id="ESda6m1xkykQsSSz6do7-131" value="" style="shape=partialRectangle;connectable=0;fillColor=none;top=0;left=0;bottom=0;right=0;editable=1;overflow=hidden;" vertex="1" parent="ESda6m1xkykQsSSz6do7-130">
          <mxGeometry width="60" height="30" as="geometry" />
        </mxCell>
        <mxCell id="ESda6m1xkykQsSSz6do7-132" value="cantidad" style="shape=partialRectangle;connectable=0;fillColor=none;top=0;left=0;bottom=0;right=0;align=left;spacingLeft=6;overflow=hidden;" vertex="1" parent="ESda6m1xkykQsSSz6do7-130">
          <mxGeometry x="60" width="120" height="30" as="geometry" />
        </mxCell>
        <mxCell id="ESda6m1xkykQsSSz6do7-133" value="FK" style="shape=partialRectangle;connectable=0;fillColor=none;top=0;left=0;bottom=0;right=0;fontStyle=1;overflow=hidden;" vertex="1" parent="WIyWlLk6GJQsqaUBKTNV-1">
          <mxGeometry x="330" y="210" width="60" height="30" as="geometry" />
        </mxCell>
        <mxCell id="ESda6m1xkykQsSSz6do7-147" value="Imagen" style="shape=table;startSize=30;container=1;collapsible=1;childLayout=tableLayout;fixedRows=1;rowLines=0;fontStyle=1;align=center;resizeLast=1;" vertex="1" parent="WIyWlLk6GJQsqaUBKTNV-1">
          <mxGeometry x="-160" y="320" width="150" height="160" as="geometry" />
        </mxCell>
        <mxCell id="ESda6m1xkykQsSSz6do7-148" value="" style="shape=partialRectangle;collapsible=0;dropTarget=0;pointerEvents=0;fillColor=none;top=0;left=0;bottom=0;right=0;points=[[0,0.5],[1,0.5]];portConstraint=eastwest;" vertex="1" parent="ESda6m1xkykQsSSz6do7-147">
          <mxGeometry y="30" width="150" height="30" as="geometry" />
        </mxCell>
        <mxCell id="ESda6m1xkykQsSSz6do7-149" value="PK" style="shape=partialRectangle;connectable=0;fillColor=none;top=0;left=0;bottom=0;right=0;fontStyle=1;overflow=hidden;" vertex="1" parent="ESda6m1xkykQsSSz6do7-148">
          <mxGeometry width="60" height="30" as="geometry" />
        </mxCell>
        <mxCell id="ESda6m1xkykQsSSz6do7-150" value="id_img" style="shape=partialRectangle;connectable=0;fillColor=none;top=0;left=0;bottom=0;right=0;align=left;spacingLeft=6;fontStyle=5;overflow=hidden;" vertex="1" parent="ESda6m1xkykQsSSz6do7-148">
          <mxGeometry x="60" width="90" height="30" as="geometry" />
        </mxCell>
        <mxCell id="ESda6m1xkykQsSSz6do7-151" value="" style="shape=partialRectangle;collapsible=0;dropTarget=0;pointerEvents=0;fillColor=none;top=0;left=0;bottom=1;right=0;points=[[0,0.5],[1,0.5]];portConstraint=eastwest;" vertex="1" parent="ESda6m1xkykQsSSz6do7-147">
          <mxGeometry y="60" width="150" height="30" as="geometry" />
        </mxCell>
        <mxCell id="ESda6m1xkykQsSSz6do7-152" value="FK" style="shape=partialRectangle;connectable=0;fillColor=none;top=0;left=0;bottom=0;right=0;fontStyle=1;overflow=hidden;" vertex="1" parent="ESda6m1xkykQsSSz6do7-151">
          <mxGeometry width="60" height="30" as="geometry" />
        </mxCell>
        <mxCell id="ESda6m1xkykQsSSz6do7-153" value="plato_id" style="shape=partialRectangle;connectable=0;fillColor=none;top=0;left=0;bottom=0;right=0;align=left;spacingLeft=6;fontStyle=5;overflow=hidden;" vertex="1" parent="ESda6m1xkykQsSSz6do7-151">
          <mxGeometry x="60" width="90" height="30" as="geometry" />
        </mxCell>
        <mxCell id="ESda6m1xkykQsSSz6do7-154" value="" style="shape=partialRectangle;collapsible=0;dropTarget=0;pointerEvents=0;fillColor=none;top=0;left=0;bottom=0;right=0;points=[[0,0.5],[1,0.5]];portConstraint=eastwest;" vertex="1" parent="ESda6m1xkykQsSSz6do7-147">
          <mxGeometry y="90" width="150" height="30" as="geometry" />
        </mxCell>
        <mxCell id="ESda6m1xkykQsSSz6do7-155" value="" style="shape=partialRectangle;connectable=0;fillColor=none;top=0;left=0;bottom=0;right=0;editable=1;overflow=hidden;" vertex="1" parent="ESda6m1xkykQsSSz6do7-154">
          <mxGeometry width="60" height="30" as="geometry" />
        </mxCell>
        <mxCell id="ESda6m1xkykQsSSz6do7-156" value="" style="shape=partialRectangle;connectable=0;fillColor=none;top=0;left=0;bottom=0;right=0;align=left;spacingLeft=6;overflow=hidden;" vertex="1" parent="ESda6m1xkykQsSSz6do7-154">
          <mxGeometry x="60" width="90" height="30" as="geometry" />
        </mxCell>
        <mxCell id="ESda6m1xkykQsSSz6do7-157" value="" style="shape=partialRectangle;collapsible=0;dropTarget=0;pointerEvents=0;fillColor=none;top=0;left=0;bottom=0;right=0;points=[[0,0.5],[1,0.5]];portConstraint=eastwest;" vertex="1" parent="ESda6m1xkykQsSSz6do7-147">
          <mxGeometry y="120" width="150" height="30" as="geometry" />
        </mxCell>
        <mxCell id="ESda6m1xkykQsSSz6do7-158" value="" style="shape=partialRectangle;connectable=0;fillColor=none;top=0;left=0;bottom=0;right=0;editable=1;overflow=hidden;" vertex="1" parent="ESda6m1xkykQsSSz6do7-157">
          <mxGeometry width="60" height="30" as="geometry" />
        </mxCell>
        <mxCell id="ESda6m1xkykQsSSz6do7-159" value="" style="shape=partialRectangle;connectable=0;fillColor=none;top=0;left=0;bottom=0;right=0;align=left;spacingLeft=6;overflow=hidden;" vertex="1" parent="ESda6m1xkykQsSSz6do7-157">
          <mxGeometry x="60" width="90" height="30" as="geometry" />
        </mxCell>
        <mxCell id="ESda6m1xkykQsSSz6do7-160" value="" style="edgeStyle=entityRelationEdgeStyle;fontSize=12;html=1;endArrow=ERoneToMany;exitX=0;exitY=0.5;exitDx=0;exitDy=0;" edge="1" parent="WIyWlLk6GJQsqaUBKTNV-1" source="ESda6m1xkykQsSSz6do7-108" target="ESda6m1xkykQsSSz6do7-148">
          <mxGeometry width="100" height="100" relative="1" as="geometry">
            <mxPoint x="-130" y="230" as="sourcePoint" />
            <mxPoint x="-30" y="130" as="targetPoint" />
          </mxGeometry>
        </mxCell>
        <mxCell id="ESda6m1xkykQsSSz6do7-172" value="" style="edgeStyle=entityRelationEdgeStyle;fontSize=12;html=1;endArrow=ERzeroToMany;startArrow=ERmandOne;exitX=1.018;exitY=-0.067;exitDx=0;exitDy=0;exitPerimeter=0;entryX=0;entryY=0.5;entryDx=0;entryDy=0;" edge="1" parent="WIyWlLk6GJQsqaUBKTNV-1" source="ESda6m1xkykQsSSz6do7-114" target="ESda6m1xkykQsSSz6do7-124">
          <mxGeometry width="100" height="100" relative="1" as="geometry">
            <mxPoint x="260" y="320" as="sourcePoint" />
            <mxPoint x="360" y="220" as="targetPoint" />
          </mxGeometry>
        </mxCell>
        <mxCell id="ESda6m1xkykQsSSz6do7-173" value="" style="edgeStyle=entityRelationEdgeStyle;fontSize=12;html=1;endArrow=ERzeroToMany;startArrow=ERmandOne;exitX=0;exitY=0.5;exitDx=0;exitDy=0;entryX=1;entryY=0.5;entryDx=0;entryDy=0;" edge="1" parent="WIyWlLk6GJQsqaUBKTNV-1" source="ESda6m1xkykQsSSz6do7-92" target="ESda6m1xkykQsSSz6do7-127">
          <mxGeometry width="100" height="100" relative="1" as="geometry">
            <mxPoint x="460" y="410" as="sourcePoint" />
            <mxPoint x="560" y="310" as="targetPoint" />
          </mxGeometry>
        </mxCell>
        <mxCell id="ESda6m1xkykQsSSz6do7-174" value="" style="edgeStyle=entityRelationEdgeStyle;fontSize=12;html=1;endArrow=ERoneToMany;startArrow=ERmandOne;exitX=0;exitY=0.5;exitDx=0;exitDy=0;entryX=1;entryY=0.5;entryDx=0;entryDy=0;" edge="1" parent="WIyWlLk6GJQsqaUBKTNV-1" source="ESda6m1xkykQsSSz6do7-73" target="ESda6m1xkykQsSSz6do7-95">
          <mxGeometry width="100" height="100" relative="1" as="geometry">
            <mxPoint x="640" y="510" as="sourcePoint" />
            <mxPoint x="740" y="410" as="targetPoint" />
          </mxGeometry>
        </mxCell>
      </root>
    </mxGraphModel>
  </diagram>
</mxfile>
